<svg width="41" height="40" viewBox="0 0 41 40" fill="none" xmlns="http://www.w3.org/2000/svg">
<path d="M22.7514 0H4.49013C2.33216 0 0.577225 1.75555 0.577225 3.9129V16.9572C0.577225 19.1152 2.33277 20.8701 4.49013 20.8701H5.79455V24.783C5.79455 25.3109 6.11208 25.7862 6.59963 25.9878C7.07908 26.1873 7.64341 26.0829 8.02141 25.7046L12.8565 20.8695H22.7518C24.9098 20.8695 26.6647 19.1139 26.6647 16.9566V3.91384C26.6641 1.75587 24.9086 0.000323602 22.7512 0.000323602L22.7514 0ZM8.40264 11.7391C7.68182 11.7391 7.09821 11.1552 7.09821 10.4347C7.09821 9.71383 7.68209 9.13023 8.40264 9.13023C9.12347 9.13023 9.70707 9.71411 9.70707 10.4347C9.70707 11.1552 9.12259 11.7391 8.40264 11.7391ZM14.9246 10.4353C14.9246 11.1561 14.3408 11.7397 13.6202 11.7397C12.8994 11.7397 12.3158 11.1558 12.3158 10.4353C12.3158 9.71445 12.8997 9.13085 13.6202 9.13085C14.3407 9.13055 14.9246 9.71443 14.9246 10.4353ZM18.8375 11.7391C18.1167 11.7391 17.5331 11.1552 17.5331 10.4347C17.5331 9.71383 18.117 9.13023 18.8375 9.13023C19.5584 9.13023 20.142 9.71411 20.142 10.4347C20.142 11.1552 19.5581 11.7391 18.8375 11.7391Z" fill="#FFCC00"/>
<path d="M38.0078 14.1519C37.5885 13.9981 37.1362 13.9139 36.6642 13.9139H28.0317V16.957C28.0317 19.8689 25.6628 22.2372 22.7515 22.2372H14.4904V30.8697C14.4904 33.0264 16.2471 34.7826 18.4033 34.7826H28.2994L33.1344 39.6177C33.3852 39.8684 33.7183 40.0041 34.069 39.9999C34.2282 39.9978 34.3913 39.9668 34.5523 39.9048C35.039 39.6959 35.3607 39.2267 35.3607 38.6961V34.7832H36.6651C38.8219 34.7832 40.578 33.0264 40.578 30.8703V17.8267C40.578 16.1413 39.506 14.7006 38.0081 14.1513L38.0078 14.1519ZM22.3161 25.653C21.5953 25.653 21.0117 25.0691 21.0117 24.3485C21.0117 23.6277 21.5955 23.0441 22.3161 23.0441C23.0369 23.0441 23.6205 23.628 23.6205 24.3485C23.6208 25.069 23.0363 25.653 22.3161 25.653ZM28.8381 24.3485C28.8381 25.0693 28.2542 25.653 27.5336 25.653C26.8128 25.653 26.2292 25.0691 26.2292 24.3485C26.2292 23.6277 26.8131 23.0441 27.5336 23.0441C28.2536 23.0447 28.8381 23.6283 28.8381 24.3485ZM32.751 25.653C32.0302 25.653 31.4465 25.0691 31.4465 24.3485C31.4465 23.6277 32.0304 23.0441 32.751 23.0441C33.4718 23.0441 34.0554 23.628 34.0554 24.3485C34.0554 25.069 33.4715 25.653 32.751 25.653Z" fill="#FFCC00"/>
</svg>
