<svg width="41" height="40" viewBox="0 0 41 40" fill="none" xmlns="http://www.w3.org/2000/svg">
<path d="M37.1653 15.0424V19.2844L40.4986 17.3397V17.3338H40.4879C40.5019 17.0942 40.3704 16.8695 40.1546 16.7644L40.1599 16.7552L37.1653 15.0424Z" fill="#5AC8FA"/>
<path d="M5.1651 20.0611L20.4985 29.0059L35.9371 20.0001H35.8317V0.66667C35.8317 0.489884 35.7615 0.320238 35.6365 0.195239C35.5115 0.0702404 35.3418 0 35.1651 0H5.83156C5.46341 0 5.16489 0.298516 5.16489 0.66667L5.1651 20.0611ZM29.8319 18.6664H24.4985V17.333H29.8319V18.6664ZM11.1651 3.99964H29.8319V5.33298H11.1651V3.99964ZM11.1651 7.33299H29.8319V8.66633H11.1651V7.33299ZM11.1651 10.6663H29.8319V11.9997H11.1651V10.6663ZM11.1651 13.9997H29.8319V15.333H11.1651V13.9997Z" fill="#5AC8FA"/>
<path d="M3.83173 19.2839V15.0419L0.831718 16.7547L0.837075 16.7639C0.732016 16.819 0.644221 16.9017 0.58291 17.0032C0.527553 17.1053 0.501066 17.2205 0.506422 17.3365H0.498386V17.3425L3.83173 19.2839Z" fill="#5AC8FA"/>
<path d="M40.4986 38.3392V18.8823L23.8219 28.6111L40.4986 38.3392Z" fill="#5AC8FA"/>
<path d="M22.4985 29.3831L21.8217 29.7784L20.4985 30.5498L19.1753 29.7784L18.4985 29.3831L0.675201 39.7801C0.680559 39.7861 0.684428 39.7941 0.689785 39.7995L0.694547 39.8054C0.749012 39.8581 0.812407 39.9007 0.881748 39.9313C0.899606 39.9399 0.917165 39.9468 0.935618 39.9539C1.00913 39.9825 1.08651 39.998 1.16508 40.0001H39.838C39.9139 39.998 39.9886 39.9828 40.0595 39.9554C40.0788 39.9486 40.0982 39.9408 40.1166 39.9322C40.1851 39.9013 40.2479 39.859 40.302 39.8075L40.3086 39.7983C40.3139 39.7935 40.3172 39.7864 40.322 39.7816L22.4985 29.3831Z" fill="#5AC8FA"/>
<path d="M17.175 28.6111L0.498386 18.8823V38.3392L17.175 28.6111Z" fill="#5AC8FA"/>
</svg>
