<svg width="39" height="39" viewBox="0 0 39 39" fill="none" xmlns="http://www.w3.org/2000/svg">
<path d="M19.5 7.73384e-05C8.79704 7.73384e-05 0.0873521 8.71008 0.000688501 19.3701C-0.0425342 24.57 1.95054 29.5101 5.6339 33.1934C9.27369 36.9201 14.1703 38.9567 19.3701 39H19.5001C30.203 39 38.9127 30.29 38.9994 19.63C39.0861 8.88333 30.3763 0.0866667 19.5001 0L19.5 7.73384e-05ZM28.9463 26.0001L28.0798 26.8667C26.6498 28.2967 25.4365 28.6434 23.5299 28.08C21.5364 27.4733 19.7601 26.39 18.1566 25.0899C15.86 23.2267 13.39 20.7998 11.7869 18.2864C10.1837 15.6863 9.66352 12.9565 11.9168 10.7031L12.7834 9.83651C13.39 9.22986 14.3866 9.22986 15.0367 9.83651L17.5932 12.3931C18.1998 12.9998 18.1998 13.9964 17.5932 14.6465L16.0765 16.1633L16.1197 16.2066C17.8096 18.7631 20.0194 20.9734 22.5762 22.6633L22.6194 22.7065L24.1362 21.1897C24.7428 20.5831 25.7394 20.5831 26.3895 21.1897L28.946 23.7463C29.5965 24.3968 29.5965 25.3933 28.9463 26L28.9463 26.0001Z" fill="#34C759"/>
</svg>
