<svg width="12" height="20" viewBox="0 0 12 20" fill="none" xmlns="http://www.w3.org/2000/svg">
<path d="M5.58157 -6.67572e-05C4.1017 0.0014267 2.68308 0.590143 1.63654 1.63647C0.59021 2.68279 0.00169397 4.10163 0 5.5815L0 12.4022C0 12.7401 0.274072 13.0141 0.611959 13.0141C0.950069 13.0141 1.22414 12.7401 1.22414 12.4022V5.5815C1.22414 4.02458 2.05467 2.58613 3.40285 1.80767C4.75103 1.02943 6.4121 1.02943 7.76028 1.80767C9.10846 2.58613 9.939 4.02458 9.939 5.5815V15.3524C9.90549 16.4048 9.32469 17.3632 8.40727 17.8799C7.48985 18.3967 6.36921 18.3967 5.45179 17.8799C4.53437 17.3632 3.95356 16.4048 3.92006 15.3524L3.92006 6.92793C3.92006 6.31892 4.24493 5.75631 4.77218 5.45167C5.29962 5.14728 5.94938 5.14728 6.47658 5.45167C7.00402 5.75626 7.32892 6.31892 7.32892 6.92793V11.6862C7.32892 12.0241 7.603 12.2982 7.94088 12.2982C8.27899 12.2982 8.55284 12.0241 8.55284 11.6862V6.92793C8.55284 5.88161 7.99465 4.91484 7.08854 4.39168C6.18265 3.86851 5.06627 3.86851 4.16017 4.39168C3.25406 4.91486 2.69587 5.88161 2.69587 6.92793L2.69587 15.3524C2.73578 16.8379 3.55138 18.1937 4.84491 18.925C6.13845 19.6565 7.72056 19.6565 9.01409 18.925C10.3076 18.1937 11.1232 16.8379 11.1631 15.3524V5.5815C11.1614 4.10163 10.5729 2.68279 9.5266 1.63647C8.48006 0.590143 7.06144 0.00140762 5.58157 -6.67572e-05Z" fill="#838385"/>
</svg>
